<svg width="127" height="92" viewBox="0 0 127 92" fill="none" xmlns="http://www.w3.org/2000/svg">
<g clip-path="url(#clip0_293_297)">
<path d="M49.0062 11.3261L60.2846 16.2375L56.0071 18.1946L49.0062 11.3261ZM47.3115 10.1801L55.9331 18.6337L61.2023 16.23L47.3189 10.1875L47.3115 10.1801Z" fill="url(#paint0_linear_293_297)"/>
<path d="M61.276 16.8031L69.0169 22.5256L57.0799 18.7155L61.276 16.7956M61.3204 16.364L56.0513 18.7676L71.0373 23.5526L61.313 16.364H61.3204Z" fill="url(#paint1_linear_293_297)"/>
<path d="M35.6927 13.0376L67.87 23.1879H45.3503L35.6927 13.0376ZM34.4346 12.2488L45.1949 23.5599H70.29L34.4346 12.2488Z" fill="url(#paint2_linear_293_297)"/>
<path d="M74.1014 20.3824L75.3669 23.1879H72.2883L74.1014 20.3824ZM74.1606 19.6085L71.6074 23.56H75.9441L74.1606 19.6085Z" fill="url(#paint3_linear_293_297)"/>
<path d="M80.3771 19.988L84.0699 22.2875V23.1879H76.7582L75.1375 19.9806H80.3845M80.4881 19.6085H74.5381L76.5362 23.56H84.44V22.0791L80.4881 19.6085Z" fill="url(#paint4_linear_293_297)"/>
<path d="M85.2685 22.6893L88.4211 23.1953H85.2685V22.6893ZM84.8984 22.2502V23.56H93.1056L84.8984 22.2502Z" fill="url(#paint5_linear_293_297)"/>
<path d="M74.9523 24.3785L68.3066 30.7336L48.007 24.3785H74.9523ZM75.8773 24.0065H45.5723L68.4028 31.1578L75.8773 24.0065Z" fill="url(#paint6_linear_293_297)"/>
<path d="M49.1171 25.6957L66.8561 31.3365L60.1068 32.6313L49.1245 25.6957M46.4751 24.4604L60.0328 33.0182L68.3658 31.4257L46.4751 24.4604Z" fill="url(#paint7_linear_293_297)"/>
<path d="M56.7694 36.9324L55.837 42.8261L45.3949 52.329L48.9545 44.9916L56.7694 36.925M57.3171 35.8236L48.6437 44.7758L44.2256 53.8917L56.1848 43.0047L57.3171 35.8236Z" fill="url(#paint8_linear_293_297)"/>
<path d="M66.982 32.2815L56.9247 41.9853L57.9608 35.8906L60.2254 33.6135L66.982 32.2815ZM68.1439 31.6713L60.0403 33.2638L57.613 35.7046L56.3623 43.0271L68.1439 31.6638V31.6713Z" fill="url(#paint9_linear_293_297)"/>
<path d="M75.7221 25.1153V29.5281L67.5593 37.8925L59.3892 40.8616L75.7147 25.1227M76.0847 24.2521L57.8721 41.8067L67.7591 38.2124L76.0847 29.6844V24.2521Z" fill="url(#paint10_linear_293_297)"/>
<path d="M83.2408 24.3785L76.9207 28.7244V24.3785H83.2408ZM84.4396 24.0065H76.5581V29.4314L84.4396 24.0065Z" fill="url(#paint11_linear_293_297)"/>
<path d="M90.4564 22.0121C87.252 9.27218 75.8774 0.372078 62.7933 0.372078C54.1051 0.372078 45.9942 4.2789 40.5474 11.0954L40.2588 10.8647C45.7796 3.95891 53.9941 0 62.7933 0C76.0476 0 87.5702 9.01173 90.8116 21.9228L90.4564 22.0121Z" fill="url(#paint12_linear_293_297)"/>
<path d="M42.3385 49.5906C36.8917 44.1062 33.8945 36.8134 33.8945 29.0593C33.8945 24.9888 34.716 21.0597 36.3293 17.3687L36.6697 17.5175C35.0712 21.1638 34.2646 25.0483 34.2646 29.0593C34.2646 36.7093 37.2248 43.9127 42.5975 49.3227L42.3385 49.5832V49.5906Z" fill="url(#paint13_linear_293_297)"/>
<path d="M62.7932 58.1186C57.6795 58.1186 52.6619 56.7568 48.2734 54.1895L48.4585 53.8695C52.7951 56.4071 57.7535 57.7466 62.7932 57.7466C78.5267 57.7466 91.3222 44.8801 91.3222 29.0593C91.3222 27.8613 91.2481 26.6632 91.1001 25.48L91.4702 25.4353C91.6182 26.626 91.6922 27.8464 91.6922 29.0593C91.6922 45.081 78.7265 58.1186 62.7932 58.1186Z" fill="url(#paint14_linear_293_297)"/>
<path d="M13.0175 91.7395H0V67.2271H12.4994L12.2626 68.9981L3.31542 69.1172V77.8089L11.7446 77.9057L11.5078 79.461L3.32282 79.6545V89.8494L13.2765 90.0429L13.0397 91.7395H13.0175Z" fill="url(#paint15_linear_293_297)"/>
<path d="M40.6731 68.4028C39.785 68.4028 38.8969 68.6484 38.0089 69.1321C37.1208 69.6158 36.1144 70.4269 34.9821 71.558C34.6639 71.878 34.316 72.2352 33.946 72.637C33.576 73.0389 33.1838 73.4556 32.7767 73.8947C32.3697 74.3337 31.9627 74.7876 31.5483 75.249C31.1338 75.7104 30.7416 76.1569 30.3568 76.5885C30.9784 77.6898 31.6075 78.7912 32.2513 79.9074C32.8951 81.0162 33.539 82.0878 34.1902 83.1147C34.8415 84.1417 35.5001 85.1091 36.181 86.0095C36.8544 86.9099 37.5279 87.6913 38.2013 88.3536C38.8747 89.0159 39.5556 89.5368 40.2364 89.9238C40.9173 90.3033 41.5981 90.4968 42.2864 90.4968H42.575V91.5758C42.0348 91.7172 41.5315 91.8288 41.0505 91.8958C40.5769 91.9702 39.97 92 39.2374 92C38.5047 92 37.7795 91.8214 37.106 91.4642C36.4326 91.107 35.7739 90.6084 35.1449 89.9833C34.5085 89.3508 33.8942 88.6215 33.2874 87.7806C32.6805 86.9397 32.0885 86.0393 31.5038 85.0793C30.9192 84.1119 30.3346 83.1147 29.7573 82.0729C29.1801 81.0385 28.588 80.0116 27.9812 79.007C27.8702 79.1335 27.7148 79.3121 27.5076 79.5353C27.3004 79.7586 27.0931 79.9893 26.8785 80.2274C26.6639 80.4655 26.4641 80.6888 26.2717 80.8972C26.0793 81.1055 25.9461 81.2544 25.8647 81.3511V91.7395H22.5566V67.227H25.8647V78.9549C26.1681 78.5903 26.5233 78.1587 26.9377 77.6601C27.3522 77.1689 27.7888 76.6406 28.2624 76.0899C28.7287 75.5392 29.2097 74.9737 29.7055 74.3932C30.194 73.8128 30.675 73.2547 31.1338 72.7263C31.5927 72.198 32.0293 71.7068 32.4437 71.2529C32.8581 70.799 33.2134 70.4194 33.5168 70.1143C34.1014 69.5265 34.6343 69.0353 35.1079 68.6558C35.5815 68.2763 36.0552 67.9712 36.5214 67.7554C36.9876 67.5396 37.4761 67.3907 37.9719 67.3014C38.4751 67.2121 39.045 67.1675 39.6962 67.1675C39.9996 67.1675 40.2586 67.1824 40.4807 67.2121C40.7027 67.2419 40.8803 67.2865 41.0061 67.3312V68.3879H40.6731V68.4028Z" fill="url(#paint16_linear_293_297)"/>
<path d="M74.545 91.7396L72.5469 73.0464L63.9771 91.7396H62.4526L53.1428 73.0464L51.4999 91.7396H49.3315L51.8329 67.0634H53.831L63.7551 87.1928L73.0649 67.0634H75.0853L77.8013 91.7396H74.5376H74.545Z" fill="url(#paint17_linear_293_297)"/>
<path d="M114.434 91.7395V67.2271H117.742V89.8717H127L126.763 91.7395H114.434Z" fill="url(#paint18_linear_293_297)"/>
<path d="M97.3463 66.6094L94.4898 67.4428L84.8247 91.7395H87.2521L90.5379 82.8841L91.1299 81.1576L95.3704 69.7199L99.4185 81.1576L99.9143 82.765L102.963 91.7395H106.39L97.3463 66.6094Z" fill="url(#paint19_linear_293_297)"/>
<path d="M90.7969 91.7396H91.6035L95.4814 81.4405L99.0632 91.7396H99.8699L95.511 79.208L90.7969 91.7396Z" fill="url(#paint20_linear_293_297)"/>
<path d="M94.1788 79.8257L95.5775 76.1123L96.8356 79.8778L101.083 91.7396H101.89L97.5534 79.6247L95.6145 73.8427L93.4757 79.5429L88.584 91.7396H89.4054L94.1788 79.8257Z" fill="url(#paint21_linear_293_297)"/>
<path d="M92.7061 91.7396H93.5201L95.3776 86.7984L97.0353 91.7396H97.8346L95.422 84.5361L92.7061 91.7396Z" fill="url(#paint22_linear_293_297)"/>
</g>
<defs>
<linearGradient id="paint0_linear_293_297" x1="34.7973" y1="6.90577" x2="93.3586" y2="32.5633" gradientUnits="userSpaceOnUse">
<stop stop-color="#AD842E"/>
<stop offset="1" stop-color="#F4E370"/>
</linearGradient>
<linearGradient id="paint1_linear_293_297" x1="34.7674" y1="6.98021" x2="93.3287" y2="32.6377" gradientUnits="userSpaceOnUse">
<stop stop-color="#AD842E"/>
<stop offset="1" stop-color="#F4E370"/>
</linearGradient>
<linearGradient id="paint2_linear_293_297" x1="32.4142" y1="12.3455" x2="90.9755" y2="38.0031" gradientUnits="userSpaceOnUse">
<stop stop-color="#AD842E"/>
<stop offset="1" stop-color="#F4E370"/>
</linearGradient>
<linearGradient id="paint3_linear_293_297" x1="35.604" y1="5.06772" x2="94.1653" y2="30.7327" gradientUnits="userSpaceOnUse">
<stop stop-color="#AD842E"/>
<stop offset="1" stop-color="#F4E370"/>
</linearGradient>
<linearGradient id="paint4_linear_293_297" x1="36.5143" y1="2.98408" x2="95.0757" y2="28.649" gradientUnits="userSpaceOnUse">
<stop stop-color="#AD842E"/>
<stop offset="1" stop-color="#F4E370"/>
</linearGradient>
<linearGradient id="paint5_linear_293_297" x1="37.4982" y1="0.744133" x2="96.0595" y2="26.4017" gradientUnits="userSpaceOnUse">
<stop stop-color="#AD842E"/>
<stop offset="1" stop-color="#F4E370"/>
</linearGradient>
<linearGradient id="paint6_linear_293_297" x1="32.7398" y1="11.6088" x2="91.3012" y2="37.2738" gradientUnits="userSpaceOnUse">
<stop stop-color="#AD842E"/>
<stop offset="1" stop-color="#F4E370"/>
</linearGradient>
<linearGradient id="paint7_linear_293_297" x1="30.2828" y1="17.2049" x2="88.8441" y2="42.8625" gradientUnits="userSpaceOnUse">
<stop stop-color="#AD842E"/>
<stop offset="1" stop-color="#F4E370"/>
</linearGradient>
<linearGradient id="paint8_linear_293_297" x1="23.4672" y1="32.7726" x2="82.0285" y2="58.4375" gradientUnits="userSpaceOnUse">
<stop stop-color="#AD842E"/>
<stop offset="1" stop-color="#F4E370"/>
</linearGradient>
<linearGradient id="paint9_linear_293_297" x1="28.0924" y1="22.213" x2="86.6537" y2="47.8706" gradientUnits="userSpaceOnUse">
<stop stop-color="#AD842E"/>
<stop offset="1" stop-color="#F4E370"/>
</linearGradient>
<linearGradient id="paint10_linear_293_297" x1="30.4458" y1="16.8403" x2="89.0071" y2="42.4978" gradientUnits="userSpaceOnUse">
<stop stop-color="#AD842E"/>
<stop offset="1" stop-color="#F4E370"/>
</linearGradient>
<linearGradient id="paint11_linear_293_297" x1="34.9525" y1="6.54857" x2="93.5138" y2="32.2061" gradientUnits="userSpaceOnUse">
<stop stop-color="#AD842E"/>
<stop offset="1" stop-color="#F4E370"/>
</linearGradient>
<linearGradient id="paint12_linear_293_297" x1="40.2588" y1="11.0061" x2="90.8116" y2="11.0061" gradientUnits="userSpaceOnUse">
<stop stop-color="#AD842E"/>
<stop offset="1" stop-color="#F4E370"/>
</linearGradient>
<linearGradient id="paint13_linear_293_297" x1="33.8945" y1="33.4796" x2="42.5975" y2="33.4796" gradientUnits="userSpaceOnUse">
<stop stop-color="#AD842E"/>
<stop offset="1" stop-color="#F4E370"/>
</linearGradient>
<linearGradient id="paint14_linear_293_297" x1="48.2734" y1="41.777" x2="91.6922" y2="41.777" gradientUnits="userSpaceOnUse">
<stop stop-color="#AD842E"/>
<stop offset="1" stop-color="#F4E370"/>
</linearGradient>
<linearGradient id="paint15_linear_293_297" x1="3.38943" y1="80.2944" x2="117.435" y2="51.1007" gradientUnits="userSpaceOnUse">
<stop stop-color="#AD842E"/>
<stop offset="1" stop-color="#F4E370"/>
</linearGradient>
<linearGradient id="paint16_linear_293_297" x1="4.98785" y1="86.5379" x2="119.034" y2="57.3515" gradientUnits="userSpaceOnUse">
<stop stop-color="#AD842E"/>
<stop offset="1" stop-color="#F4E370"/>
</linearGradient>
<linearGradient id="paint17_linear_293_297" x1="6.99329" y1="94.3664" x2="121.039" y2="65.1728" gradientUnits="userSpaceOnUse">
<stop stop-color="#AD842E"/>
<stop offset="1" stop-color="#F4E370"/>
</linearGradient>
<linearGradient id="paint18_linear_293_297" x1="10.4793" y1="107.984" x2="124.525" y2="78.7908" gradientUnits="userSpaceOnUse">
<stop stop-color="#AD842E"/>
<stop offset="1" stop-color="#F4E370"/>
</linearGradient>
<linearGradient id="paint19_linear_293_297" x1="9.24341" y1="103.147" x2="123.282" y2="73.9538" gradientUnits="userSpaceOnUse">
<stop stop-color="#AD842E"/>
<stop offset="1" stop-color="#F4E370"/>
</linearGradient>
<linearGradient id="paint20_linear_293_297" x1="10.4941" y1="108.037" x2="124.54" y2="78.8503" gradientUnits="userSpaceOnUse">
<stop stop-color="#AD842E"/>
<stop offset="1" stop-color="#F4E370"/>
</linearGradient>
<linearGradient id="paint21_linear_293_297" x1="9.91668" y1="105.782" x2="123.955" y2="76.5955" gradientUnits="userSpaceOnUse">
<stop stop-color="#AD842E"/>
<stop offset="1" stop-color="#F4E370"/>
</linearGradient>
<linearGradient id="paint22_linear_293_297" x1="11.0711" y1="110.284" x2="125.109" y2="81.0902" gradientUnits="userSpaceOnUse">
<stop stop-color="#AD842E"/>
<stop offset="1" stop-color="#F4E370"/>
</linearGradient>
<clipPath id="clip0_293_297">
<rect width="127" height="92" fill="white"/>
</clipPath>
</defs>
</svg>
